# Blender v2.80 (sub 75) OBJ File: 'base_scene_full.blend'
# www.blender.org
mtllib base_scene_full.mtl
o Ground_Sphere
v 0.000000 160.981964 -196.157059
v 0.000000 33.706070 -111.114037
v 38.268356 160.981964 -192.387955
v 36.048004 123.463348 -181.225494
v 32.442348 88.885963 -163.098633
v 27.589951 58.578644 -138.703979
v 21.677286 33.706070 -108.979012
v 14.931575 15.224075 -75.066025
v 7.612051 3.842941 -38.268295
v 75.066078 160.981964 -181.225464
v 70.710701 123.463348 -170.710678
v 63.637955 88.885963 -153.635544
v 54.119637 58.578644 -130.656281
v 42.521523 33.706070 -102.655968
v 29.289335 15.224075 -70.710648
v 14.931573 3.842941 -36.047943
v 108.979050 160.981964 -163.098602
v 102.656021 123.463348 -153.635544
v 92.387985 88.885963 -138.268326
v 78.569534 58.578644 -117.587540
v 61.731686 33.706070 -92.387924
v 42.521523 15.224075 -63.637894
v 21.677284 3.842941 -32.442287
v 138.704010 160.981964 -138.703949
v 130.656326 123.463348 -130.656281
v 117.587601 88.885963 -117.587532
v 100.000038 58.578644 -99.999977
v 78.569534 33.706070 -78.569458
v 54.119637 15.224075 -54.119576
v 27.589947 3.842941 -27.589888
v 163.098663 160.981964 -108.978966
v 153.635590 123.463348 -102.655968
v 138.268387 88.885963 -92.387917
v 117.587601 58.578644 -78.569458
v 92.387985 33.706070 -61.731613
v 63.637959 15.224075 -42.521465
v 32.442345 3.842941 -21.677221
v 181.225510 160.981964 -75.065979
v 170.710709 123.463348 -70.710648
v 153.635590 88.885963 -63.637878
v 130.656342 58.578644 -54.119564
v 102.656029 33.706070 -42.521454
v 70.710709 15.224075 -29.289276
v 36.048000 3.842941 -14.931510
v 192.387970 160.981964 -38.268269
v 181.225510 123.463348 -36.047955
v 163.098663 88.885963 -32.442276
v 138.704025 58.578644 -27.589884
v 108.979057 33.706070 -21.677214
v 75.066086 15.224075 -14.931512
v 38.268353 3.842941 -7.611987
v 196.157043 160.981964 0.000079
v 184.775940 123.463348 0.000046
v 166.293961 88.885963 0.000067
v 141.421387 58.578644 0.000064
v 111.114075 33.706070 0.000068
v 76.536713 15.224075 0.000061
v 39.018074 3.842941 0.000062
v 192.387939 160.981964 38.268421
v 181.225510 123.463348 36.048042
v 163.098663 88.885963 32.442406
v 138.704010 58.578644 27.590006
v 108.979050 33.706070 21.677349
v 75.066078 15.224075 14.931633
v 38.268353 3.842941 7.612111
v 181.225464 160.981964 75.066124
v 170.710709 123.463348 70.710732
v 153.635559 88.885963 63.638008
v 130.656326 58.578644 54.119682
v 102.656006 33.706070 42.521584
v 70.710693 15.224075 29.289392
v 36.047997 3.842941 14.931633
v 163.098602 160.981964 108.979080
v 153.635574 123.463348 102.656052
v 138.268356 88.885963 92.388031
v 117.587593 58.578644 78.569565
v 92.387962 33.706070 61.731731
v 63.637943 15.224075 42.521580
v 32.442341 3.842941 21.677343
v 138.703964 160.981964 138.704041
v 130.656326 123.463348 130.656357
v 117.587555 88.885963 117.587639
v 100.000015 58.578644 100.000069
v 78.569504 33.706070 78.569565
v 54.119617 15.224075 54.119682
v 27.589941 3.842941 27.590006
v 108.978996 160.981964 163.098679
v 102.656021 123.463348 153.635620
v 92.387947 88.885963 138.268417
v 78.569504 58.578644 117.587639
v 61.731655 33.706070 92.388023
v 42.521511 15.224075 63.637997
v 21.677279 3.842941 32.442402
v 0.000000 0.000000 0.000065
v 75.066032 160.981964 181.225525
v 70.710693 123.463348 170.710739
v 63.637913 88.885963 153.635605
v 54.119606 58.578644 130.656357
v 42.521500 33.706070 102.656052
v 29.289324 15.224075 70.710739
v 14.931570 3.842941 36.048058
v 38.268322 160.981964 192.387985
v 36.048004 123.463348 181.225555
v 32.442314 88.885963 163.098663
v 27.589931 58.578644 138.704056
v 21.677273 33.706070 108.979080
v 14.931568 15.224075 75.066116
v 7.612048 3.842941 38.268410
v -0.000017 160.981964 196.157074
v 0.000013 123.463348 184.775970
v -0.000017 88.885963 166.293945
v -0.000005 58.578644 141.421417
v -0.000002 33.706070 111.114098
v 0.000001 15.224075 76.536743
v 0.000001 3.842941 39.018127
v -38.268353 160.981964 192.387970
v -36.047981 123.463348 181.225555
v -32.442345 88.885963 163.098648
v -27.589945 58.578644 138.704041
v -21.677273 33.706070 108.979073
v -14.931564 15.224075 75.066109
v -7.612046 3.842941 38.268406
v -75.066055 160.981964 181.225494
v -70.710663 123.463348 170.710739
v -63.637932 88.885963 153.635544
v -54.119610 58.578644 130.656357
v -42.521500 33.706070 102.656044
v -29.289318 15.224075 70.710724
v -14.931564 3.842941 36.048050
v -108.979012 160.981964 163.098633
v -102.655983 123.463348 153.635605
v -92.387939 88.885963 138.268341
v -78.569496 58.578644 117.587616
v -61.731647 33.706070 92.388000
v -42.521496 15.224075 63.637970
v -21.677269 3.842941 32.442390
v -138.703949 160.981964 138.703979
v -130.656281 123.463348 130.656357
v -117.587532 88.885963 117.587555
v -100.000000 58.578644 100.000046
v -78.569481 33.706070 78.569534
v -54.119598 15.224075 54.119652
v -27.589930 3.842941 27.589994
v -163.098587 160.981964 108.979012
v -153.635544 123.463348 102.656052
v -138.268311 88.885963 92.387955
v -117.587555 58.578644 78.569542
v -92.387939 33.706070 61.731697
v -63.637913 15.224075 42.521542
v -32.442326 3.842941 21.677332
v -181.225433 160.981964 75.066048
v -170.710678 123.463348 70.710739
v -153.635483 88.885963 63.637936
v -130.656296 58.578644 54.119652
v -102.655968 33.706070 42.521549
v -70.710655 15.224075 29.289362
v -36.047977 3.842941 14.931623
v -192.387878 160.981964 38.268349
v -181.225479 123.463348 36.048054
v -163.098557 88.885963 32.442348
v -138.703979 58.578644 27.589977
v -108.978996 33.706070 21.677324
v -75.066025 15.224075 14.931612
v -38.268326 3.842941 7.612107
v -196.156967 160.981964 0.000019
v -184.775894 123.463348 0.000064
v -166.293854 88.885963 0.000028
v -141.421341 58.578644 0.000037
v -111.114014 33.706070 0.000052
v -76.536652 15.224075 0.000050
v -39.018051 3.842941 0.000063
v -192.387848 160.981964 -38.268307
v -181.225464 123.463348 -36.047928
v -163.098541 88.885963 -32.442291
v -138.703964 58.578644 -27.589899
v -108.978989 33.706070 -21.677217
v -75.066017 15.224075 -14.931509
v -38.268326 3.842941 -7.611980
v -181.225372 160.981964 -75.065994
v -170.710663 123.463348 -70.710609
v -153.635452 88.885963 -63.637871
v -130.656265 58.578644 -54.119568
v -102.655945 33.706070 -42.521442
v -70.710640 15.224075 -29.289257
v -36.047977 3.842941 -14.931497
v -163.098511 160.981964 -108.978943
v -153.635529 123.463348 -102.655922
v -138.268250 88.885963 -92.387878
v -117.587532 58.578644 -78.569450
v -92.387901 33.706070 -61.731583
v -63.637890 15.224075 -42.521431
v -32.442322 3.842941 -21.677200
v -138.703873 160.981964 -138.703873
v -130.656281 123.463348 -130.656219
v -117.587456 88.885963 -117.587471
v -99.999969 58.578644 -99.999947
v -78.569450 33.706070 -78.569412
v -54.119576 15.224075 -54.119526
v -27.589926 3.842941 -27.589863
v -108.978912 160.981964 -163.098495
v -102.655968 123.463348 -153.635468
v -92.387863 88.885963 -138.268234
v -78.569458 58.578644 -117.587494
v -61.731613 33.706070 -92.387863
v -42.521473 15.224075 -63.637840
v -21.677265 3.842941 -32.442261
v -75.065956 160.981964 -181.225327
v -70.710663 123.463348 -170.710587
v -63.637840 88.885963 -153.635422
v -54.119576 58.578644 -130.656235
v -42.521465 33.706070 -102.655884
v -29.289297 15.224075 -70.710587
v -14.931558 3.842941 -36.047916
v -38.268269 160.981964 -192.387772
v -36.047974 123.463348 -181.225403
v -32.442265 88.885963 -163.098480
v -27.589905 58.578644 -138.703903
v -21.677240 33.706070 -108.978905
v -14.931544 15.224075 -75.065956
v -7.612041 3.842941 -38.268265
v 0.000013 123.463348 -184.775803
v 0.000054 88.885963 -166.293747
v 0.000031 58.578644 -141.421265
v 0.000016 15.224075 -76.536583
v 0.000003 3.842941 -39.017982
vn 0.0938 -0.2890 -0.9527
vn 0.0865 -0.4696 -0.8786
vn 0.0759 -0.6326 -0.7708
vn 0.0624 -0.7715 -0.6332
vn 0.0464 -0.8810 -0.4709
vn 0.0286 -0.9565 -0.2902
vn 0.0097 -0.9951 -0.0980
vn 0.2779 -0.2890 -0.9161
vn 0.2563 -0.4696 -0.8448
vn 0.2248 -0.6326 -0.7412
vn 0.1847 -0.7715 -0.6088
vn 0.1374 -0.8810 -0.4528
vn 0.0846 -0.9565 -0.2790
vn 0.0286 -0.9951 -0.0942
vn 0.2999 -0.7715 -0.5611
vn 0.2230 -0.8810 -0.4173
vn 0.1374 -0.9565 -0.2571
vn 0.0464 -0.9951 -0.0869
vn 0.4513 -0.2890 -0.8443
vn 0.4162 -0.4696 -0.7786
vn 0.3651 -0.6326 -0.6831
vn 0.6073 -0.2890 -0.7400
vn 0.5601 -0.4696 -0.6825
vn 0.4913 -0.6326 -0.5987
vn 0.4036 -0.7715 -0.4918
vn 0.3002 -0.8810 -0.3658
vn 0.1850 -0.9565 -0.2254
vn 0.0625 -0.9951 -0.0761
vn 0.3658 -0.8810 -0.3002
vn 0.2254 -0.9565 -0.1850
vn 0.0761 -0.9951 -0.0625
vn 0.7400 -0.2890 -0.6073
vn 0.6825 -0.4696 -0.5601
vn 0.5987 -0.6326 -0.4913
vn 0.4918 -0.7715 -0.4036
vn 0.8443 -0.2890 -0.4513
vn 0.7786 -0.4696 -0.4162
vn 0.6831 -0.6326 -0.3651
vn 0.5611 -0.7715 -0.2999
vn 0.4173 -0.8810 -0.2230
vn 0.2571 -0.9565 -0.1374
vn 0.0869 -0.9951 -0.0464
vn 0.4528 -0.8810 -0.1374
vn 0.2790 -0.9565 -0.0846
vn 0.0942 -0.9951 -0.0286
vn 0.9161 -0.2890 -0.2779
vn 0.8448 -0.4696 -0.2563
vn 0.7412 -0.6326 -0.2248
vn 0.6088 -0.7715 -0.1847
vn 0.8786 -0.4696 -0.0865
vn 0.7708 -0.6326 -0.0759
vn 0.6332 -0.7715 -0.0624
vn 0.4709 -0.8810 -0.0464
vn 0.2902 -0.9565 -0.0286
vn 0.0980 -0.9951 -0.0097
vn 0.9527 -0.2890 -0.0938
vn 0.2902 -0.9565 0.0286
vn 0.0980 -0.9951 0.0097
vn 0.9527 -0.2890 0.0938
vn 0.8786 -0.4696 0.0865
vn 0.7708 -0.6326 0.0759
vn 0.6332 -0.7715 0.0624
vn 0.4709 -0.8810 0.0464
vn 0.7412 -0.6326 0.2248
vn 0.6088 -0.7715 0.1847
vn 0.4528 -0.8810 0.1374
vn 0.2790 -0.9565 0.0846
vn 0.0942 -0.9951 0.0286
vn 0.9161 -0.2890 0.2779
vn 0.8448 -0.4696 0.2563
vn 0.0869 -0.9951 0.0464
vn 0.8443 -0.2890 0.4513
vn 0.7786 -0.4696 0.4162
vn 0.6831 -0.6326 0.3651
vn 0.5611 -0.7715 0.2999
vn 0.4173 -0.8810 0.2230
vn 0.2571 -0.9565 0.1374
vn 0.5987 -0.6326 0.4913
vn 0.4918 -0.7715 0.4036
vn 0.3658 -0.8810 0.3002
vn 0.2254 -0.9565 0.1850
vn 0.0761 -0.9951 0.0625
vn 0.7400 -0.2890 0.6073
vn 0.6825 -0.4696 0.5601
vn 0.0625 -0.9951 0.0761
vn 0.6073 -0.2890 0.7400
vn 0.5601 -0.4696 0.6825
vn 0.4913 -0.6326 0.5987
vn 0.4036 -0.7715 0.4918
vn 0.3002 -0.8810 0.3658
vn 0.1850 -0.9565 0.2254
vn 0.2999 -0.7715 0.5611
vn 0.2230 -0.8810 0.4173
vn 0.1374 -0.9565 0.2571
vn 0.0464 -0.9951 0.0869
vn 0.4513 -0.2890 0.8443
vn 0.4162 -0.4696 0.7786
vn 0.3651 -0.6326 0.6831
vn 0.2779 -0.2890 0.9161
vn 0.2563 -0.4696 0.8448
vn 0.2248 -0.6326 0.7412
vn 0.1847 -0.7715 0.6088
vn 0.1374 -0.8810 0.4528
vn 0.0846 -0.9565 0.2790
vn 0.0286 -0.9951 0.0942
vn 0.0624 -0.7715 0.6332
vn 0.0464 -0.8810 0.4709
vn 0.0286 -0.9565 0.2902
vn 0.0097 -0.9951 0.0980
vn 0.0938 -0.2890 0.9527
vn 0.0865 -0.4696 0.8786
vn 0.0759 -0.6326 0.7708
vn -0.0938 -0.2890 0.9527
vn -0.0865 -0.4696 0.8786
vn -0.0759 -0.6326 0.7708
vn -0.0624 -0.7715 0.6332
vn -0.0464 -0.8810 0.4709
vn -0.0286 -0.9565 0.2902
vn -0.0097 -0.9951 0.0980
vn -0.1374 -0.8810 0.4528
vn -0.0846 -0.9565 0.2790
vn -0.0286 -0.9951 0.0942
vn -0.2779 -0.2890 0.9161
vn -0.2563 -0.4696 0.8448
vn -0.2248 -0.6326 0.7412
vn -0.1847 -0.7715 0.6088
vn -0.4162 -0.4696 0.7786
vn -0.3651 -0.6326 0.6831
vn -0.2999 -0.7715 0.5611
vn -0.2230 -0.8810 0.4173
vn -0.1374 -0.9565 0.2571
vn -0.0464 -0.9951 0.0869
vn -0.4513 -0.2890 0.8443
vn -0.1850 -0.9565 0.2254
vn -0.0625 -0.9951 0.0761
vn -0.6073 -0.2890 0.7400
vn -0.5601 -0.4696 0.6825
vn -0.4913 -0.6326 0.5987
vn -0.4036 -0.7715 0.4918
vn -0.3002 -0.8810 0.3658
vn -0.6825 -0.4696 0.5601
vn -0.5987 -0.6326 0.4913
vn -0.4918 -0.7715 0.4036
vn -0.3658 -0.8810 0.3002
vn -0.2254 -0.9565 0.1850
vn -0.0761 -0.9951 0.0625
vn -0.7400 -0.2890 0.6073
vn -0.2571 -0.9565 0.1374
vn -0.0869 -0.9951 0.0464
vn -0.8443 -0.2890 0.4513
vn -0.7786 -0.4696 0.4162
vn -0.6831 -0.6326 0.3651
vn -0.5611 -0.7715 0.2999
vn -0.4173 -0.8810 0.2230
vn -0.7412 -0.6326 0.2248
vn -0.6088 -0.7715 0.1847
vn -0.4528 -0.8810 0.1374
vn -0.2790 -0.9565 0.0846
vn -0.0942 -0.9951 0.0286
vn -0.9161 -0.2890 0.2779
vn -0.8448 -0.4696 0.2563
vn -0.0980 -0.9951 0.0097
vn -0.9527 -0.2890 0.0938
vn -0.8786 -0.4696 0.0865
vn -0.7708 -0.6326 0.0759
vn -0.6332 -0.7715 0.0624
vn -0.4709 -0.8810 0.0464
vn -0.2902 -0.9565 0.0286
vn -0.7708 -0.6326 -0.0759
vn -0.6332 -0.7715 -0.0624
vn -0.4709 -0.8810 -0.0464
vn -0.2902 -0.9565 -0.0286
vn -0.0980 -0.9951 -0.0097
vn -0.9527 -0.2890 -0.0938
vn -0.8786 -0.4696 -0.0865
vn -0.0942 -0.9951 -0.0286
vn -0.9161 -0.2890 -0.2779
vn -0.8448 -0.4696 -0.2563
vn -0.7412 -0.6326 -0.2248
vn -0.6088 -0.7715 -0.1847
vn -0.4528 -0.8810 -0.1374
vn -0.2790 -0.9565 -0.0846
vn -0.5611 -0.7715 -0.2999
vn -0.4173 -0.8810 -0.2231
vn -0.2571 -0.9565 -0.1374
vn -0.0869 -0.9951 -0.0464
vn -0.8443 -0.2890 -0.4513
vn -0.7786 -0.4696 -0.4162
vn -0.6831 -0.6326 -0.3651
vn -0.7400 -0.2890 -0.6073
vn -0.6825 -0.4696 -0.5601
vn -0.5987 -0.6326 -0.4913
vn -0.4918 -0.7715 -0.4036
vn -0.3658 -0.8810 -0.3002
vn -0.2254 -0.9565 -0.1850
vn -0.0761 -0.9951 -0.0625
vn -0.3002 -0.8810 -0.3658
vn -0.1850 -0.9565 -0.2254
vn -0.0625 -0.9951 -0.0761
vn -0.6073 -0.2890 -0.7400
vn -0.5601 -0.4696 -0.6825
vn -0.4913 -0.6326 -0.5987
vn -0.4036 -0.7715 -0.4918
vn -0.4513 -0.2890 -0.8443
vn -0.4162 -0.4696 -0.7786
vn -0.3651 -0.6326 -0.6831
vn -0.2999 -0.7715 -0.5611
vn -0.2230 -0.8810 -0.4173
vn -0.1374 -0.9565 -0.2571
vn -0.0464 -0.9951 -0.0869
vn -0.1374 -0.8810 -0.4528
vn -0.0846 -0.9565 -0.2790
vn -0.0286 -0.9951 -0.0942
vn -0.2779 -0.2890 -0.9161
vn -0.2563 -0.4696 -0.8448
vn -0.2248 -0.6326 -0.7412
vn -0.1847 -0.7715 -0.6088
vn -0.0865 -0.4696 -0.8786
vn -0.0759 -0.6326 -0.7708
vn -0.0624 -0.7715 -0.6332
vn -0.0464 -0.8810 -0.4709
vn -0.0286 -0.9565 -0.2902
vn -0.0097 -0.9951 -0.0980
vn -0.0938 -0.2890 -0.9527
usemtl None
s off
f 221//1 1//1 3//1 4//1
f 222//2 221//2 4//2 5//2
f 223//3 222//3 5//3 6//3
f 2//4 223//4 6//4 7//4
f 224//5 2//5 7//5 8//5
f 225//6 224//6 8//6 9//6
f 94//7 225//7 9//7
f 4//8 3//8 10//8 11//8
f 5//9 4//9 11//9 12//9
f 6//10 5//10 12//10 13//10
f 7//11 6//11 13//11 14//11
f 8//12 7//12 14//12 15//12
f 9//13 8//13 15//13 16//13
f 94//14 9//14 16//14
f 14//15 13//15 20//15 21//15
f 15//16 14//16 21//16 22//16
f 16//17 15//17 22//17 23//17
f 94//18 16//18 23//18
f 11//19 10//19 17//19 18//19
f 12//20 11//20 18//20 19//20
f 13//21 12//21 19//21 20//21
f 18//22 17//22 24//22 25//22
f 19//23 18//23 25//23 26//23
f 20//24 19//24 26//24 27//24
f 21//25 20//25 27//25 28//25
f 22//26 21//26 28//26 29//26
f 23//27 22//27 29//27 30//27
f 94//28 23//28 30//28
f 29//29 28//29 35//29 36//29
f 30//30 29//30 36//30 37//30
f 94//31 30//31 37//31
f 25//32 24//32 31//32 32//32
f 26//33 25//33 32//33 33//33
f 27//34 26//34 33//34 34//34
f 28//35 27//35 34//35 35//35
f 32//36 31//36 38//36 39//36
f 33//37 32//37 39//37 40//37
f 34//38 33//38 40//38 41//38
f 35//39 34//39 41//39 42//39
f 36//40 35//40 42//40 43//40
f 37//41 36//41 43//41 44//41
f 94//42 37//42 44//42
f 43//43 42//43 49//43 50//43
f 44//44 43//44 50//44 51//44
f 94//45 44//45 51//45
f 39//46 38//46 45//46 46//46
f 40//47 39//47 46//47 47//47
f 41//48 40//48 47//48 48//48
f 42//49 41//49 48//49 49//49
f 47//50 46//50 53//50 54//50
f 48//51 47//51 54//51 55//51
f 49//52 48//52 55//52 56//52
f 50//53 49//53 56//53 57//53
f 51//54 50//54 57//54 58//54
f 94//55 51//55 58//55
f 46//56 45//56 52//56 53//56
f 58//57 57//57 64//57 65//57
f 94//58 58//58 65//58
f 53//59 52//59 59//59 60//59
f 54//60 53//60 60//60 61//60
f 55//61 54//61 61//61 62//61
f 56//62 55//62 62//62 63//62
f 57//63 56//63 63//63 64//63
f 62//64 61//64 68//64 69//64
f 63//65 62//65 69//65 70//65
f 64//66 63//66 70//66 71//66
f 65//67 64//67 71//67 72//67
f 94//68 65//68 72//68
f 60//69 59//69 66//69 67//69
f 61//70 60//70 67//70 68//70
f 94//71 72//71 79//71
f 67//72 66//72 73//72 74//72
f 68//73 67//73 74//73 75//73
f 69//74 68//74 75//74 76//74
f 70//75 69//75 76//75 77//75
f 71//76 70//76 77//76 78//76
f 72//77 71//77 78//77 79//77
f 76//78 75//78 82//78 83//78
f 77//79 76//79 83//79 84//79
f 78//80 77//80 84//80 85//80
f 79//81 78//81 85//81 86//81
f 94//82 79//82 86//82
f 74//83 73//83 80//83 81//83
f 75//84 74//84 81//84 82//84
f 94//85 86//85 93//85
f 81//86 80//86 87//86 88//86
f 82//87 81//87 88//87 89//87
f 83//88 82//88 89//88 90//88
f 84//89 83//89 90//89 91//89
f 85//90 84//90 91//90 92//90
f 86//91 85//91 92//91 93//91
f 91//92 90//92 98//92 99//92
f 92//93 91//93 99//93 100//93
f 93//94 92//94 100//94 101//94
f 94//95 93//95 101//95
f 88//96 87//96 95//96 96//96
f 89//97 88//97 96//97 97//97
f 90//98 89//98 97//98 98//98
f 96//99 95//99 102//99 103//99
f 97//100 96//100 103//100 104//100
f 98//101 97//101 104//101 105//101
f 99//102 98//102 105//102 106//102
f 100//103 99//103 106//103 107//103
f 101//104 100//104 107//104 108//104
f 94//105 101//105 108//105
f 106//106 105//106 112//106 113//106
f 107//107 106//107 113//107 114//107
f 108//108 107//108 114//108 115//108
f 94//109 108//109 115//109
f 103//110 102//110 109//110 110//110
f 104//111 103//111 110//111 111//111
f 105//112 104//112 111//112 112//112
f 110//113 109//113 116//113 117//113
f 111//114 110//114 117//114 118//114
f 112//115 111//115 118//115 119//115
f 113//116 112//116 119//116 120//116
f 114//117 113//117 120//117 121//117
f 115//118 114//118 121//118 122//118
f 94//119 115//119 122//119
f 121//120 120//120 127//120 128//120
f 122//121 121//121 128//121 129//121
f 94//122 122//122 129//122
f 117//123 116//123 123//123 124//123
f 118//124 117//124 124//124 125//124
f 119//125 118//125 125//125 126//125
f 120//126 119//126 126//126 127//126
f 125//127 124//127 131//127 132//127
f 126//128 125//128 132//128 133//128
f 127//129 126//129 133//129 134//129
f 128//130 127//130 134//130 135//130
f 129//131 128//131 135//131 136//131
f 94//132 129//132 136//132
f 124//133 123//133 130//133 131//133
f 136//134 135//134 142//134 143//134
f 94//135 136//135 143//135
f 131//136 130//136 137//136 138//136
f 132//137 131//137 138//137 139//137
f 133//138 132//138 139//138 140//138
f 134//139 133//139 140//139 141//139
f 135//140 134//140 141//140 142//140
f 139//141 138//141 145//141 146//141
f 140//142 139//142 146//142 147//142
f 141//143 140//143 147//143 148//143
f 142//144 141//144 148//144 149//144
f 143//145 142//145 149//145 150//145
f 94//146 143//146 150//146
f 138//147 137//147 144//147 145//147
f 150//148 149//148 156//148 157//148
f 94//149 150//149 157//149
f 145//150 144//150 151//150 152//150
f 146//151 145//151 152//151 153//151
f 147//152 146//152 153//152 154//152
f 148//153 147//153 154//153 155//153
f 149//154 148//154 155//154 156//154
f 154//155 153//155 160//155 161//155
f 155//156 154//156 161//156 162//156
f 156//157 155//157 162//157 163//157
f 157//158 156//158 163//158 164//158
f 94//159 157//159 164//159
f 152//160 151//160 158//160 159//160
f 153//161 152//161 159//161 160//161
f 94//162 164//162 171//162
f 159//163 158//163 165//163 166//163
f 160//164 159//164 166//164 167//164
f 161//165 160//165 167//165 168//165
f 162//166 161//166 168//166 169//166
f 163//167 162//167 169//167 170//167
f 164//168 163//168 170//168 171//168
f 168//169 167//169 174//169 175//169
f 169//170 168//170 175//170 176//170
f 170//171 169//171 176//171 177//171
f 171//172 170//172 177//172 178//172
f 94//173 171//173 178//173
f 166//174 165//174 172//174 173//174
f 167//175 166//175 173//175 174//175
f 94//176 178//176 185//176
f 173//177 172//177 179//177 180//177
f 174//178 173//178 180//178 181//178
f 175//179 174//179 181//179 182//179
f 176//180 175//180 182//180 183//180
f 177//181 176//181 183//181 184//181
f 178//182 177//182 184//182 185//182
f 183//183 182//183 189//183 190//183
f 184//184 183//184 190//184 191//184
f 185//185 184//185 191//185 192//185
f 94//186 185//186 192//186
f 180//187 179//187 186//187 187//187
f 181//188 180//188 187//188 188//188
f 182//189 181//189 188//189 189//189
f 187//190 186//190 193//190 194//190
f 188//191 187//191 194//191 195//191
f 189//192 188//192 195//192 196//192
f 190//193 189//193 196//193 197//193
f 191//194 190//194 197//194 198//194
f 192//195 191//195 198//195 199//195
f 94//196 192//196 199//196
f 198//197 197//197 204//197 205//197
f 199//198 198//198 205//198 206//198
f 94//199 199//199 206//199
f 194//200 193//200 200//200 201//200
f 195//201 194//201 201//201 202//201
f 196//202 195//202 202//202 203//202
f 197//203 196//203 203//203 204//203
f 201//204 200//204 207//204 208//204
f 202//205 201//205 208//205 209//205
f 203//206 202//206 209//206 210//206
f 204//207 203//207 210//207 211//207
f 205//208 204//208 211//208 212//208
f 206//209 205//209 212//209 213//209
f 94//210 206//210 213//210
f 212//211 211//211 218//211 219//211
f 213//212 212//212 219//212 220//212
f 94//213 213//213 220//213
f 208//214 207//214 214//214 215//214
f 209//215 208//215 215//215 216//215
f 210//216 209//216 216//216 217//216
f 211//217 210//217 217//217 218//217
f 216//218 215//218 221//218 222//218
f 217//219 216//219 222//219 223//219
f 218//220 217//220 223//220 2//220
f 219//221 218//221 2//221 224//221
f 220//222 219//222 224//222 225//222
f 94//223 220//223 225//223
f 215//224 214//224 1//224 221//224
